<svg width="229" height="138" viewBox="0 0 229 138" fill="none" xmlns="http://www.w3.org/2000/svg">
<path d="M27.3334 20.1722C28.9147 13.9771 34.4948 9.6424 40.8885 9.6424H176.374C185.504 9.6424 192.187 18.2457 189.929 27.0918L167.91 113.361C166.329 119.556 160.748 123.891 154.355 123.891H18.8689C9.73918 123.891 3.05598 115.288 5.31387 106.442L27.3334 20.1722Z" fill="#6CB2B2"/>
<path d="M86.4299 106.819C83.2434 108.373 79.7071 109.616 75.8211 110.549C71.9351 111.482 67.1942 111.948 61.5983 111.948C56.7797 111.948 52.3496 111.171 48.3082 109.616C44.3445 107.984 40.9248 105.692 38.0491 102.738C35.2512 99.7849 33.075 96.2098 31.5206 92.0129C29.9662 87.7383 29.189 82.9585 29.189 77.6735C29.189 71.6114 30.2383 65.588 32.3367 59.6036C34.5129 53.6191 37.6605 48.2953 41.7797 43.6321C45.9766 38.8912 51.0672 35.044 57.0517 32.0907C63.1139 29.1373 70.0698 27.6606 77.9195 27.6606C81.6501 27.6606 85.303 28.0881 88.8781 28.943C92.5309 29.7979 96.3392 31.3135 100.303 33.4896L93.7745 47.5958C90.5102 45.886 87.5957 44.7202 85.0309 44.0984C82.4662 43.4767 79.7071 43.1658 76.7537 43.1658C72.3237 43.1658 68.3211 44.0596 64.746 45.8471C61.2486 47.6347 58.2175 50.0829 55.6527 53.1917C53.1657 56.2228 51.2615 59.759 49.9403 63.8005C48.6191 67.8419 47.9584 72.1165 47.9584 76.6243C47.9584 83.4637 49.4351 88.4378 52.3885 91.5466C55.4196 94.6554 59.733 96.2098 65.3289 96.2098C69.0595 96.2098 72.4791 95.8212 75.5879 95.044C78.7745 94.2668 81.7278 93.2564 84.448 92.0129L86.4299 106.819ZM140.721 28.5933C145.617 28.5933 150.008 29.1373 153.894 30.2254C157.858 31.2358 161.2 32.7513 163.92 34.772C166.64 36.715 168.739 39.1243 170.216 42C171.692 44.8756 172.431 48.101 172.431 51.6761C172.431 57.5052 171.304 62.4404 169.05 66.4818C166.796 70.5233 163.687 73.7875 159.723 76.2746C155.76 78.7616 151.096 80.5492 145.734 81.6373C140.371 82.7253 134.542 83.2694 128.247 83.2694H123.7L117.172 110.316H99.1016L118.104 30.6917C122.301 29.9145 126.265 29.3705 129.995 29.0596C133.804 28.7487 137.379 28.5933 140.721 28.5933ZM139.205 43.8653C137.884 43.8653 136.757 43.9041 135.824 43.9819C134.892 44.0596 133.959 44.1373 133.026 44.215L127.431 67.9974H131.977C135.241 67.9974 138.195 67.7642 140.837 67.2979C143.558 66.7539 145.85 65.8989 147.716 64.7331C149.659 63.5673 151.135 62.0906 152.146 60.3031C153.234 58.4378 153.778 56.1839 153.778 53.5414C153.778 50.044 152.495 47.557 149.931 46.0803C147.444 44.6036 143.868 43.8653 139.205 43.8653Z" fill="white"/>
<path d="M208.14 114.979H190.886L205.458 53.658H222.829L208.14 114.979ZM216.533 46.1969C214.124 46.1969 211.948 45.4974 210.005 44.0984C208.062 42.6218 207.09 40.4067 207.09 37.4534C207.09 35.8212 207.401 34.3057 208.023 32.9067C208.722 31.4301 209.616 30.1865 210.704 29.1762C211.792 28.0881 213.036 27.2332 214.435 26.6114C215.912 25.9896 217.466 25.6788 219.098 25.6788C221.507 25.6788 223.684 26.4171 225.627 27.8938C227.57 29.2928 228.541 31.4689 228.541 34.4223C228.541 36.0544 228.191 37.6088 227.492 39.0855C226.87 40.4845 226.015 41.728 224.927 42.8161C223.839 43.8264 222.557 44.6425 221.08 45.2642C219.681 45.886 218.165 46.1969 216.533 46.1969Z" fill="#554A4A"/>
</svg>
